Coordinates
version=1
nRows=10
nColumns=61
inDegrees=yes

Units are S.I. units (second, meters, Newtons, ...)
Angles are in degrees.

endheader
time	pelvis_tilt	pelvis_list	pelvis_rotation	pelvis_tx	pelvis_ty	pelvis_tz	hip_flexion_r	hip_adduction_r	hip_rotation_r	knee_angle_r	knee_angle_r_beta	ankle_angle_r	subtalar_angle_r	mtp_angle_r	hip_flexion_l	hip_adduction_l	hip_rotation_l	knee_angle_l	knee_angle_l_beta	ankle_angle_l	subtalar_angle_l	mtp_angle_l	lumbar_extension	lumbar_bending	lumbar_rotation	arm_flex_r	arm_add_r	arm_rot_r	elbow_flex_r	pro_sup_r	wrist_flex_r	wrist_dev_r	arm_flex_l	arm_add_l	arm_rot_l	elbow_flex_l	pro_sup_l	wrist_flex_l	wrist_dev_l	rightChainstay_rx	rightChainstay_ry	rightChainstay_rz	leftChainstay_rx	leftChainstay_ry	leftChainstay_rz	steeringTube_rx	steeringTube_ry	steeringTube_rz	frontWheel_rx	frontWheel_ry	frontWheel_rz	seatpost_tx	saddle_rz	saddle_tx	saddle_ty	crankSpindle_rx	crankSpindle_ry	crankSpindle_rz	leftPedal_rz	rightPedal_rz
      2.50500000	     -5.47197056	     -3.47555359	     -1.41674675	      0.12016928	      1.12280485	     -0.25220949	     65.80687403	     -6.66612653	     -0.83654738	    109.83297205	      1.91694699	      8.74499491	      6.64009538	    -20.00000000	     40.84489738	    -11.57822614	    -12.70697451	     37.12729079	      0.64799347	     -4.86074579	      9.55526602	    -20.00000000	    -74.27713750	     -1.90114897	      3.18483917	    113.48874473	     -0.84349173	     73.19798746	      1.74781822	     17.07126319	     -0.00000000	      0.00000000	    113.30288982	     -1.93780475	     78.54600198	      0.78188604	     11.16942474	     -0.00000000	      0.00000000	     90.87467166	      0.00000000	      0.00000000	     90.87467166	     -0.00000000	     -0.00000000	      0.00000000	     -0.65305284	     -0.00000000	      0.00000000	      0.00000018	     -0.00000000	      0.00000000	     -0.00000000	      0.00000000	      0.00000000	      0.00000000	    584.01515752	      0.00000000	    591.06317780	    556.52356059
      2.51000000	     -5.66487798	     -3.95405169	     -1.51421815	      0.12088368	      1.12298488	     -0.25296777	     66.86808614	     -6.39773080	     -1.21560977	    110.61386798	      1.93057619	      9.03008993	      6.59660705	    -20.00000000	     40.21032330	    -11.89844250	    -12.60606722	     36.23862603	      0.63248334	     -5.90239498	      9.50871926	    -20.00000000	    -74.13518526	     -1.74328153	      3.61759748	    113.45267454	     -0.80269088	     73.73223889	      1.71735902	     16.51957583	     -0.00000000	      0.00000000	    113.29682841	     -1.99134372	     78.14876915	      0.82820064	     11.58436824	     -0.00000000	      0.00000000	     91.48919286	      0.00000000	      0.00000000	     91.48919286	     -0.00000000	     -0.00000000	      0.00000000	     -0.73160319	     -0.00000000	      0.00000000	      0.00000018	     -0.00000000	      0.00000000	      0.00000000	     -0.00000000	      0.00000000	      0.00000000	    586.57035832	     -0.00000000	    592.70580035	    559.58324960
      2.51500000	     -5.87446592	     -4.04121639	     -2.00833315	      0.12191166	      1.12358349	     -0.25335152	     68.03946576	     -5.90371064	     -0.98523281	    111.31870183	      1.94287787	      9.69362531	      6.75184343	    -20.00000000	     39.28441930	    -12.08779081	    -13.13115201	     35.12084191	      0.61297433	     -6.98740668	      9.43552501	    -20.00000000	    -74.02759875	     -2.12848546	      3.77628841	    113.48346745	     -0.75182841	     73.85184985	      1.66755747	     16.39626694	      0.00000000	     -0.00000000	    113.33525375	     -2.03984790	     77.99750114	      0.87538397	     11.73973234	      0.00000000	     -0.00000000	     91.48919286	      0.00000000	      0.00000000	     91.48919286	     -0.00000000	     -0.00000000	      0.00000000	     -0.77087682	      0.00000000	      0.00000000	      0.00000018	      0.00000000	      0.00000000	      0.00000000	     -0.00000000	     -0.00000000	      0.00000000	    589.21679504	      0.00000000	    594.42616909	    563.16941763
      2.52000000	     -6.10445494	     -4.30472452	     -2.10730867	      0.12242842	      1.12399085	     -0.25425341	     69.15345775	     -5.73426478	     -1.13588966	    111.92007455	      1.95337380	      9.81686403	      6.77141710	    -20.00000000	     38.58810447	    -12.20795572	    -13.20941263	     34.13996966	      0.59585488	     -7.88613329	      9.37272099	    -20.00000000	    -73.90599614	     -2.03486885	      4.05527505	    113.51086785	     -0.68575119	     73.99823015	      1.60200075	     16.24859570	      0.00000000	      0.00000000	    113.36720740	     -2.11204563	     77.92608003	      0.94832297	     11.81242852	     -0.00000000	      0.00000000	     91.48919286	      0.00000000	      0.00000000	     91.48919286	     -0.00000000	     -0.00000000	      0.00000000	     -0.88584043	     -0.00000000	     -0.00000000	      0.00000018	     -0.00000000	      0.00000000	     -0.00000000	     -0.00000000	      0.00000000	     -0.00000000	    591.64861323	     -0.00000000	    596.10308217	    566.10592030
      2.52500000	     -6.25893988	     -4.51218267	     -2.23666974	      0.12289393	      1.12460542	     -0.25503863	     70.17786662	     -5.53722633	     -1.22423998	    112.46012457	      1.96279945	     10.18010074	      6.86847965	    -20.00000000	     37.80965109	    -12.31144735	    -13.35045665	     33.21690998	      0.57974445	     -8.83639254	      9.28372555	    -20.00000000	    -73.85392291	     -2.00539942	      4.28824570	    113.54464535	     -0.64574087	     74.17993863	      1.56420251	     16.06349323	      0.00000000	      0.00000000	    113.40806569	     -2.16068295	     77.84708987	      0.99650023	     11.89467720	      0.00000000	     -0.00000000	     91.47771513	      0.00000000	      0.00000000	     91.47771513	     -0.00000000	     -0.00000000	     -0.00000000	     -0.97999840	      0.00000000	     -0.00000000	      0.00000018	     -0.00000000	     -0.00000000	     -0.00000000	     -0.00000000	      0.00000000	     -0.00000000	    594.20711403	     -0.00000000	    597.79358099	    569.41714519
      2.53000000	     -6.59384940	     -4.79798587	     -2.25779979	      0.12321798	      1.12489534	     -0.25590645	     71.38643755	     -5.42122885	     -1.45741558	    112.94800703	      1.97131461	     10.50589141	      6.96908050	    -20.00000000	     37.33650698	    -12.44759865	    -13.32010966	     32.44485412	      0.56626953	     -9.62547971	      9.20448201	    -20.00000000	    -73.59926412	     -1.80772654	      4.60077590	    113.53780582	     -0.60990315	     74.40811467	      1.53165262	     15.83047966	      0.00000000	     -0.00000000	    113.41051380	     -2.20802572	     77.75520993	      1.04285916	     11.99116456	      0.00000000	     -0.00000000	     91.47771513	     -0.00000000	      0.00000000	     91.47771513	      0.00000000	     -0.00000000	      0.00000000	     -1.11311840	      0.00000000	      0.00000000	      0.00000018	     -0.00000000	      0.00000000	     -0.00000000	     -0.00000000	     -0.00000000	     -0.00000000	    596.76126545	     -0.00000000	    599.59298404	    572.77153049
      2.53500000	     -6.88244343	     -4.97221984	     -2.23916387	      0.12349777	      1.12533848	     -0.25691385	     72.53213867	     -5.41836086	     -1.57838359	    113.35074010	      1.97834362	     10.67205857	      7.05977910	    -20.00000000	     36.79515314	    -12.43541278	    -13.34365727	     31.63719507	      0.55217322	    -10.40282310	      9.11000150	    -20.00000000	    -73.42523565	     -1.61621976	      4.78322132	    113.56814173	     -0.56141444	     74.65614785	      1.48634992	     15.57759486	     -0.00000000	      0.00000000	    113.45056273	     -2.26946274	     77.66164312	      1.10367407	     12.08930741	      0.00000000	      0.00000000	     91.47771513	     -0.00000000	      0.00000000	     91.47771513	      0.00000000	     -0.00000000	      0.00000000	     -1.24683535	      0.00000000	     -0.00000000	      0.00000018	      0.00000000	     -0.00000000	     -0.00000000	      0.00000000	     -0.00000000	     -0.00000000	    599.21642281	      0.00000000	    601.31990311	    575.92308906
      2.54000000	     -7.13756625	     -5.11965839	     -2.21966019	      0.12374628	      1.12587669	     -0.25786397	     73.61992394	     -5.41859715	     -1.68914572	    113.67327265	      1.98397288	     10.89997067	      7.17238076	    -20.00000000	     36.21747084	    -12.41189285	    -13.37956797	     30.86489859	      0.53869410	    -11.13427179	      9.01959116	    -20.00000000	    -73.29082271	     -1.43464619	      4.94594143	    113.60580281	     -0.51737594	     75.04329910	      1.44842772	     15.18139345	      0.00000000	      0.00000000	    113.50454238	     -2.33423475	     77.51963605	      1.16636273	     12.23986644	     -0.00000000	      0.00000000	     91.47771513	      0.00000000	      0.00000000	     91.47771513	     -0.00000000	     -0.00000000	     -0.00000000	     -1.38487074	     -0.00000000	      0.00000000	      0.00000018	     -0.00000000	      0.00000000	      0.00000000	     -0.00000000	     -0.00000000	      0.00000000	    601.72430851	     -0.00000000	    603.10229903	    579.23147648
      2.54500000	     -7.41463368	     -5.18221845	     -2.17573233	      0.12393294	      1.12638399	     -0.25889728	     74.73445417	     -5.49803946	     -1.73056916	    113.93437734	      1.98853002	     11.03633197	      7.28333648	    -20.00000000	     35.67033012	    -12.29223349	    -13.43148365	     30.11135406	      0.52554227	    -11.82752811	      8.91972746	    -20.00000000	    -73.14664479	     -1.24917327	      5.02389384	    113.65487348	     -0.47105234	     75.43744315	      1.40822181	     14.77791344	      0.00000000	     -0.00000000	    113.57030307	     -2.40203226	     77.37977295	      1.23214156	     12.38852474	      0.00000000	      0.00000000	     91.47546751	      0.00000000	      0.00000000	     91.47546751	     -0.00000000	     -0.00000000	     -0.00000000	     -1.52029813	     -0.00000000	      0.00000000	      0.00000018	     -0.00000000	     -0.00000000	     -0.00000000	      0.00000000	     -0.00000000	     -0.00000000	    604.20706907	      0.00000000	    604.88830294	    582.48428991
      2.55000000	     -7.66372603	     -5.18843327	     -2.14810662	      0.12409703	      1.12698500	     -0.25979657	     75.80125956	     -5.53250002	     -1.73399097	    114.13389835	      1.99201231	     11.17823717	      7.30794769	    -20.00000000	     35.10042400	    -12.15352371	    -13.58341912	     29.39940376	      0.51311639	    -12.52005981	      8.86282610	    -20.00000000	    -73.02909786	     -1.00708641	      4.96889227	    113.55741608	     -0.27510803	     80.26191188	      1.29997003	      9.79543618	     -0.00000000	      0.00000000	    113.72054685	     -2.77834905	     74.60909937	      1.54712124	     15.31423128	     -0.00000000	      0.00000000	     91.47546751	      0.00000000	      0.00000000	     91.47546751	     -0.00000000	     -0.00000000	      0.00000000	     -1.91909916	     -0.00000000	     -0.00000000	      0.00000018	      0.00000000	      0.00000000	     -0.00000000	     -0.00000000	     -0.00000000	      0.00000000	    606.66013319	     -0.00000000	    606.61229755	    585.73789977
